<?xml version="1.0" standalone="no"?>
<!DOCTYPE svg PUBLIC "-//W3C//DTD SVG 20010904//EN"
        "http://www.w3.org/TR/2001/REC-SVG-20010904/DTD/svg10.dtd">
<svg version="1.0" xmlns="http://www.w3.org/2000/svg"
     width="1200.000000pt" height="1553.000000pt" viewBox="0 0 1200.000000 1553.000000"
     preserveAspectRatio="xMidYMid meet">

    <g transform="translate(0.000000,1553.000000) scale(0.100000,-0.100000)"
       fill="#2FAEE0" stroke="none">
        <path d="M9150 13206 c-602 -283 -1097 -581 -1405 -844 -33 -29 -64 -52 -68
-52 -4 0 -36 23 -70 52 -166 138 -504 327 -778 434 -76 30 -143 54 -148 54 -8
0 -61 -112 -61 -130 0 -4 43 -70 96 -146 106 -153 204 -344 258 -500 36 -106
78 -284 67 -284 -3 0 -46 7 -96 15 -526 84 -1159 97 -1720 34 -99 -11 -220
-26 -269 -34 -49 -8 -91 -13 -93 -11 -7 7 40 192 74 291 51 146 133 308 230
453 47 70 94 137 105 149 l20 22 -28 71 c-33 84 -15 83 -209 7 -296 -117 -568
-273 -797 -458 -31 -26 -16 -34 -166 88 -249 201 -567 401 -977 614 -193 100
-530 259 -548 259 -7 0 -29 -38 -48 -84 l-36 -84 54 -43 c137 -109 348 -352
468 -539 90 -139 218 -428 307 -690 48 -141 128 -429 128 -461 0 -10 -28 -27
-77 -49 -133 -57 -442 -215 -588 -301 -1228 -719 -2093 -1826 -2400 -3073 -75
-303 -110 -551 -124 -857 -41 -937 211 -1842 736 -2644 103 -157 283 -397 388
-518 l77 -89 -58 -156 c-140 -384 -386 -791 -685 -1137 -128 -148 -365 -375
-526 -504 -79 -63 -143 -116 -143 -117 0 -18 66 -144 75 -144 7 0 100 11 206
25 431 54 831 76 1192 64 219 -8 320 -18 571 -60 98 -16 180 -28 181 -27 1 2
84 240 185 531 101 290 187 527 192 527 5 0 68 -34 141 -76 675 -390 1461
-662 2232 -773 345 -50 438 -55 925 -56 475 0 545 4 868 46 824 107 1657 394
2372 818 62 37 106 58 110 51 3 -5 89 -245 190 -532 101 -288 186 -527 190
-531 4 -5 72 3 151 17 279 49 381 58 713 63 394 6 768 -17 1165 -72 58 -8 110
-15 118 -15 10 0 83 126 83 144 0 3 -37 33 -82 68 -485 369 -910 889 -1165
1424 -48 101 -173 424 -173 446 0 5 36 53 81 106 956 1140 1308 2583 969 3968
-166 676 -488 1301 -970 1884 -127 154 -485 513 -640 642 -254 211 -550 417
-819 572 -143 82 -436 231 -561 286 -41 18 -76 33 -77 34 -7 6 77 308 127 458
186 559 399 908 743 1213 98 88 95 75 43 186 l-31 67 -195 -92z m-2727 -1840
c234 -30 622 -108 644 -129 20 -21 -55 -481 -138 -846 -61 -266 -952 -3840
-968 -3883 -8 -21 -10 -17 -24 28 -31 104 -907 3627 -961 3864 -80 354 -103
488 -139 813 -4 31 -13 27 173 72 139 33 367 71 510 84 63 6 131 13 150 15 84
10 641 -4 753 -18z m-2943 -993 c-124 -976 -577 -2541 -1372 -4738 -72 -198
-135 -371 -140 -385 l-10 -25 -16 35 c-74 173 -191 598 -236 860 -53 304 -61
410 -61 800 0 390 8 493 61 800 188 1095 794 2103 1679 2793 l110 86 3 -29 c2
-16 -6 -104 -18 -197z m4984 180 c202 -149 504 -432 695 -653 266 -309 455
-595 640 -970 230 -467 371 -946 437 -1495 26 -213 26 -803 1 -1020 -40 -338
-104 -633 -204 -939 -30 -94 -60 -180 -65 -190 -13 -23 4 -64 -223 559 -825
2269 -1233 3710 -1339 4718 -1 15 -1 27 2 27 2 0 27 -17 56 -37z m-3947 -3656
c250 -940 318 -1225 348 -1462 54 -417 -25 -659 -330 -1015 l-81 -95 25 -77
25 -77 87 -40 c180 -84 381 -142 545 -157 l72 -7 17 -63 c43 -158 222 -463
408 -694 94 -117 254 -290 297 -320 l28 -20 97 97 c288 287 547 673 625 932
21 69 23 71 54 71 124 0 431 85 587 163 l84 42 24 76 24 76 -78 89 c-278 317
-375 572 -345 905 19 208 48 357 160 819 40 163 400 1513 405 1519 6 5 -53
172 707 -1979 l687 -1945 -112 -110 c-647 -634 -1517 -1050 -2422 -1159 -994
-120 -1995 119 -2834 676 -216 143 -486 364 -638 520 l-52 53 687 1973 c378
1084 689 1972 692 1972 3 0 96 -343 207 -763z"/>
    </g>
    <g transform="translate(600,150)" fill="#BEA064">
        <polygon points="0,-120 30,-40 120,-40 50,10 65,70 0,30 -65,70 -50,10 -120,-40 -30,-40"/>
    </g>
    <text x="600" y="1550" fill="#BEA064" font-size="120" font-family="Arial" text-anchor="middle" font-weight="900">DROIT AU BUT</text>





</svg>
